<?xml version="1.0" standalone="no"?>
<!DOCTYPE svg PUBLIC "-//W3C//DTD SVG 20010904//EN"
 "http://www.w3.org/TR/2001/REC-SVG-20010904/DTD/svg10.dtd">
<svg version="1.0" xmlns="http://www.w3.org/2000/svg"
 width="107.000000pt" height="96.000000pt" viewBox="0 0 107.000000 96.000000"
 preserveAspectRatio="xMidYMid meet">
<metadata>
Created by potrace 1.16, written by Peter Selinger 2001-2019
</metadata>
<g transform="translate(0.000000,96.000000) scale(0.100000,-0.100000)"
fill="#000000" stroke="none">
<path d="M497 787 c-16 -31 -25 -61 -21 -70 4 -13 1 -17 -15 -17 -12 0 -21 -5
-21 -11 0 -6 -9 -24 -21 -40 -23 -33 -18 -49 17 -49 13 0 29 -9 36 -20 16 -25
34 -26 48 -1 16 30 12 41 -13 41 -23 0 -47 17 -47 32 0 12 68 10 75 -2 9 -14
22 -12 28 4 3 8 -9 31 -29 51 -19 21 -33 39 -30 42 2 2 29 -10 60 -27 31 -18
56 -28 56 -22 0 5 -16 36 -35 68 -19 32 -35 61 -35 66 0 4 -6 8 -12 8 -7 0
-26 -24 -41 -53z"/>
<path d="M583 634 c-24 -14 -43 -31 -43 -38 0 -19 38 -56 58 -56 14 0 15 -2 2
-10 -16 -10 -9 -25 45 -115 13 -22 30 -55 39 -72 8 -18 20 -33 25 -33 6 0 11
-9 11 -20 0 -12 12 -32 26 -45 l27 -25 -34 -1 c-19 -1 -77 -2 -129 -3 l-95 -1
-3 -42 c-4 -57 -22 -55 -22 3 l0 45 -92 -3 c-78 -2 -96 0 -110 14 -10 10 -24
15 -33 12 -8 -4 -15 -1 -15 5 0 6 -9 11 -20 11 -24 0 -53 -41 -44 -64 4 -11 2
-15 -8 -11 -13 5 -68 -64 -68 -86 0 -5 45 -9 100 -9 59 0 100 4 100 10 0 6 9
5 24 -1 32 -15 66 4 66 36 0 14 -6 25 -12 25 -9 0 -8 4 2 10 12 8 16 2 20 -33
7 -59 33 -57 41 3 5 35 6 38 7 14 1 -17 9 -37 18 -44 19 -16 120 -23 145 -10
11 6 20 6 23 1 7 -11 116 -8 134 3 7 4 12 24 12 46 0 25 5 40 15 44 13 4 14 2
5 -14 -12 -22 -6 -40 12 -40 6 0 31 11 54 25 30 17 41 30 37 40 -3 10 -12 13
-25 9 -17 -5 -18 -3 -10 13 7 11 7 25 2 33 -8 13 -14 12 -42 -4 l-33 -18 28
24 c25 20 27 27 18 49 -5 15 -17 29 -26 33 -9 3 -14 10 -10 16 8 12 -25 61
-36 54 -5 -3 -9 6 -9 20 0 13 -8 32 -17 42 -10 9 -18 23 -19 31 -5 30 -36 65
-54 60 -16 -4 -17 -2 -8 12 8 13 6 25 -6 49 -9 18 -20 32 -24 32 -4 0 -26 -12
-49 -26z"/>
<path d="M383 584 c-4 -10 1 -20 11 -26 9 -5 14 -14 10 -19 -4 -6 -11 -6 -19
1 -8 7 -19 9 -25 5 -19 -12 -10 -31 25 -51 31 -18 34 -22 22 -38 -13 -17 -14
-16 -26 12 -21 50 -37 47 -73 -16 -64 -111 -64 -109 -42 -133 l19 -21 -31 6
c-24 6 -33 3 -38 -10 -8 -22 -8 -22 54 -34 45 -8 57 -8 69 5 14 13 11 19 -24
55 -27 27 -34 40 -23 40 27 0 48 -11 48 -26 0 -23 38 -16 46 9 5 12 7 25 6 30
-1 4 2 7 6 7 14 0 44 61 37 78 -3 9 -3 13 1 9 8 -7 34 10 34 24 0 4 -9 11 -21
14 -26 9 -15 20 18 20 43 0 36 20 -16 48 -57 32 -60 32 -68 11z"/>
<path d="M448 385 c-43 -74 -78 -136 -78 -140 0 -3 74 -5 165 -5 91 0 165 2
165 5 0 15 -156 275 -165 275 -5 0 -45 -61 -87 -135z"/>
</g>
</svg>
